# xmcd
#
# Track frame offsets:
#       150
#       15902
#       29847
#       44255
#       59565
#       75242
#       87770
#       102552
#       123977
#       138477
#       153585
#
# Disc length: 2269 seconds
#
# Revision: 0
# Processed by: cddbd v1.5.1PL0 Copyright (c) Steve Scherf et al.
# Submitted via: CD-DA_X-Tractor v0.24
#
DISCID=8908db0b
DTITLE=Rollin and Tumblin - Prayin Blues
DYEAR=1999
DGENRE=Christian
TTITLE0=Lovesick and Lonesome
TTITLE1=It's a Dirty Job
TTITLE2=Prayin' Blues
TTITLE3=Times Gettin' Tougher
TTITLE4=Genuine Queen of the Blues
TTITLE5=Seven Seals
TTITLE6=Indian Nation
TTITLE7=The Holy Son
TTITLE8=Aint Gonna Drink Again
TTITLE9=The Lord Protects Me
TTITLE10=Stand
EXTD=
EXTT0=
EXTT1=
EXTT2=
EXTT3=
EXTT4=
EXTT5=
EXTT6=
EXTT7=
EXTT8=
EXTT9=
EXTT10=
PLAYORDER=
